<?xml version="1.0" encoding="utf-8"?>
<!-- Generator: Adobe Illustrator 16.0.4, SVG Export Plug-In . SVG Version: 6.00 Build 0)  -->
<!DOCTYPE svg PUBLIC "-//W3C//DTD SVG 1.1//EN" "http://www.w3.org/Graphics/SVG/1.1/DTD/svg11.dtd">
<svg version="1.1" id="Layer_1" xmlns="http://www.w3.org/2000/svg" xmlns:xlink="http://www.w3.org/1999/xlink" x="0px" y="0px"
	 width="20px" height="20px" viewBox="0 0 20 20" enable-background="new 0 0 20 20" xml:space="preserve">
<g>
	<path fill="#010101" d="M19.885,4.179c-0.115-0.164-0.299-0.266-0.499-0.274L6.979,3.37C6.623,3.354,6.325,3.629,6.31,3.983
		C6.295,4.337,6.569,4.637,6.924,4.652L18.49,5.15l-2.273,7.096H6.096L4.267,2.291c-0.04-0.218-0.19-0.4-0.396-0.481L0.876,0.633
		c-0.33-0.129-0.703,0.032-0.832,0.362c-0.129,0.33,0.033,0.702,0.362,0.832l2.663,1.046L4.93,13.003
		c0.056,0.305,0.322,0.526,0.631,0.526H5.87l-0.705,1.958c-0.059,0.164-0.035,0.346,0.066,0.489c0.1,0.143,0.263,0.227,0.437,0.227
		h0.494c-0.306,0.341-0.494,0.789-0.494,1.283c0,1.062,0.864,1.925,1.925,1.925c1.061,0,1.925-0.863,1.925-1.925
		c0-0.494-0.188-0.942-0.495-1.283h4.198c-0.308,0.341-0.495,0.789-0.495,1.283c0,1.062,0.863,1.925,1.925,1.925
		s1.927-0.863,1.927-1.925c0-0.494-0.188-0.942-0.494-1.283h0.601c0.296,0,0.535-0.24,0.535-0.535c0-0.295-0.239-0.535-0.535-0.535
		H6.429l0.578-1.604h9.678c0.279,0,0.525-0.18,0.611-0.446l2.674-8.342C20.031,4.551,20,4.343,19.885,4.179z M7.593,18.343
		c-0.472,0-0.855-0.385-0.855-0.855c0-0.473,0.384-0.856,0.855-0.856s0.855,0.384,0.855,0.856
		C8.449,17.958,8.065,18.343,7.593,18.343z M14.651,18.343c-0.472,0-0.855-0.385-0.855-0.855c0-0.473,0.384-0.856,0.855-0.856
		c0.473,0,0.855,0.384,0.855,0.856C15.507,17.958,15.124,18.343,14.651,18.343z"/>
</g>
</svg>
